<svg width="10" height="14" viewBox="0 0 10 14" fill="none" xmlns="http://www.w3.org/2000/svg">
<g clip-path="url(#clip0_743_1134)">
<path d="M5.04642 0.804688C3.86349 0.804688 2.7953 1.20051 2.0386 1.91919C1.2283 2.68879 0.800003 3.79282 0.800003 5.11182C0.800003 5.80852 1.1202 7.132 2.6456 9.48083C3.49762 10.7928 4.42971 11.972 5.03824 12.7188C5.63671 11.9658 6.55771 10.7726 7.39536 9.45471C8.88692 7.10803 9.2 5.79777 9.2 5.11182C9.2 3.79847 8.78459 2.69693 7.99867 1.92639C7.2609 1.20306 6.21244 0.804688 5.04642 0.804688ZM5.04642 0.00476074C7.80784 0.00476074 10 1.9036 10 5.11182C10 8.26502 5.12999 13.8105 5.04637 13.9998C4.95907 13.8112 0 8.30684 0 5.11182C0 1.86085 2.28499 0.00476074 5.04642 0.00476074ZM5.04637 13.9998C5.04345 14.0064 5.04942 14.0063 5.04637 13.9998V13.9998Z" fill="#132F3B"/>
<path d="M5 6.07996C5.82843 6.07996 6.5 5.40838 6.5 4.57996C6.5 3.75153 5.82843 3.07996 5 3.07996C4.17157 3.07996 3.5 3.75153 3.5 4.57996C3.5 5.40838 4.17157 6.07996 5 6.07996Z" fill="#132F3B"/>
</g>
<defs>
<clipPath id="clip0_743_1134">
<rect width="10" height="14" fill="white"/>
</clipPath>
</defs>
</svg>
