<svg width="21" height="21" viewBox="0 0 21 21" fill="none" xmlns="http://www.w3.org/2000/svg">
<path d="M10.2207 0.5C8.24289 0.5 6.30949 1.08649 4.665 2.1853C3.02051 3.28412 1.73879 4.8459 0.981912 6.67317C0.225036 8.50042 0.0270031 10.5111 0.412854 12.4509C0.798706 14.3907 1.75111 16.1726 3.14964 17.5711C4.54816 18.9696 6.32999 19.922 8.2698 20.3079C10.2096 20.6937 12.2203 20.4957 14.0476 19.7388C15.8748 18.9819 17.4366 17.7002 18.5354 16.0557C19.6343 14.4112 20.2207 12.4778 20.2207 10.5C20.2176 7.84878 19.163 5.30701 17.2884 3.43231C15.4137 1.55762 12.8719 0.503064 10.2207 0.5ZM13.8415 13.033C13.913 13.1044 13.9698 13.1892 14.0086 13.2826C14.0474 13.3759 14.0673 13.476 14.0674 13.5771C14.0674 13.6781 14.0476 13.7782 14.0089 13.8717C13.9703 13.965 13.9136 14.0499 13.842 14.1213C13.7706 14.1929 13.6857 14.2496 13.5924 14.2882C13.4989 14.3268 13.3989 14.3467 13.2978 14.3467C13.1967 14.3466 13.0967 14.3267 13.0033 14.2879C12.9099 14.2491 12.8251 14.1923 12.7537 14.1208L10.2207 11.5877L7.68765 14.1208C7.54336 14.2648 7.3478 14.3456 7.14395 14.3454C6.9401 14.3453 6.74464 14.2643 6.60049 14.1202C6.45635 13.9761 6.37533 13.7806 6.37521 13.5768C6.3751 13.3729 6.45593 13.1773 6.59991 13.033L9.13297 10.5L6.59991 7.96695C6.45593 7.82264 6.3751 7.62709 6.37521 7.42324C6.37533 7.2194 6.45635 7.02392 6.60049 6.87979C6.74464 6.73564 6.9401 6.65461 7.14395 6.65451C7.3478 6.6544 7.54336 6.73521 7.68765 6.8792L10.2207 9.41226L12.7537 6.8792C12.898 6.73521 13.0936 6.6544 13.2975 6.65451C13.5013 6.65461 13.6968 6.73564 13.8409 6.87979C13.985 7.02392 14.066 7.2194 14.0661 7.42324C14.0663 7.62709 13.9855 7.82264 13.8415 7.96695L11.3084 10.5L13.8415 13.033Z" fill="#3B4E62"/>
</svg>
