<svg width="28" height="28" viewBox="0 0 28 28" fill="none" xmlns="http://www.w3.org/2000/svg">
<g clip-path="url(#clip0_580_1201)">
<path d="M14 27.1515C21.732 27.1515 28 21.0734 28 13.5758C28 6.07807 21.732 0 14 0C6.26801 0 0 6.07807 0 13.5758C0 21.0734 6.26801 27.1515 14 27.1515Z" fill="#25D366"/>
<path d="M5 22.5L6.27231 17.8758C5.288 16.1741 4.89502 14.1966 5.15429 12.2499C5.41356 10.3032 6.31059 8.49598 7.70633 7.10849C9.10207 5.72099 10.9186 4.83069 12.8742 4.57561C14.8298 4.32053 16.8153 4.71491 18.5229 5.69762C20.2305 6.68032 21.5648 8.19646 22.319 10.011C23.0731 11.8255 23.205 13.8371 22.6942 15.7338C22.1834 17.6306 21.0583 19.3066 19.4935 20.502C17.9288 21.6974 16.0116 22.3454 14.0393 22.3456C12.5431 22.3448 11.0711 21.971 9.75724 21.2584L5 22.5ZM9.97125 19.6477L10.2443 19.8154C11.3922 20.4923 12.7017 20.8498 14.0359 20.8507C15.6881 20.851 17.2935 20.3046 18.5998 19.2975C19.9061 18.2903 20.8392 16.8795 21.2524 15.2868C21.6656 13.694 21.5354 12.0098 20.8824 10.4987C20.2294 8.98765 19.0906 7.73552 17.6449 6.93916C16.1992 6.14279 14.5288 5.84735 12.8961 6.09929C11.2634 6.35123 9.76112 7.13625 8.62539 8.33095C7.48966 9.52564 6.78489 11.0623 6.62189 12.6992C6.4589 14.3362 6.84691 15.9807 7.72493 17.3742L7.89345 17.6544L7.14017 20.3909L9.97125 19.6477Z" fill="white"/>
<path fill-rule="evenodd" clip-rule="evenodd" d="M19.0402 15.4154C18.9786 15.3114 18.8126 15.2501 18.5645 15.1275C18.3163 15.0049 17.0982 14.4068 16.8706 14.3233C16.643 14.2397 16.4789 14.2007 16.311 14.4477C16.1431 14.6947 15.6711 15.2501 15.5275 15.4154C15.3838 15.5807 15.2365 15.6011 14.9902 15.4767C14.2631 15.186 13.5921 14.7718 13.0072 14.2527C12.4652 13.7535 12.0006 13.177 11.6286 12.542C11.4831 12.295 11.6119 12.1706 11.7368 12.0387C11.8618 11.9068 11.985 11.7489 12.1099 11.6059C12.2125 11.4813 12.2961 11.3424 12.358 11.1936C12.3907 11.1254 12.4059 11.0501 12.4023 10.9746C12.3987 10.8991 12.3765 10.8257 12.3375 10.7608C12.276 10.6382 11.7779 9.42352 11.5727 8.92946C11.3675 8.43541 11.1679 8.51341 11.013 8.50413C10.8582 8.49484 10.7034 8.50413 10.5392 8.50413C10.4117 8.50622 10.2861 8.53491 10.1704 8.58834C10.0547 8.64176 9.95159 8.71874 9.86764 8.81431C9.58944 9.07695 9.36877 9.39402 9.2195 9.74561C9.07022 10.0972 8.99556 10.4757 9.0002 10.8574C9.0002 12.0721 9.88817 13.246 10.0132 13.4113C10.1381 13.5766 11.7611 16.0692 14.2478 17.1372C14.7095 17.3355 15.1815 17.5091 15.6618 17.6572C16.1675 17.8101 16.7021 17.8439 17.2232 17.7557C17.6989 17.6851 18.6894 17.1576 18.9021 16.5818C19.1148 16.006 19.1017 15.5175 19.0402 15.4154Z" fill="white"/>
</g>
<defs>
<clipPath id="clip0_580_1201">
<rect width="28" height="27.1515" fill="white"/>
</clipPath>
</defs>
</svg>
