<svg width="19" height="19" viewBox="0 0 19 19" fill="none" xmlns="http://www.w3.org/2000/svg">
<path d="M17.074 -0.000854492H5.53267C5.44268 -0.000854492 5.35638 0.0348946 5.29274 0.0985282C5.22911 0.162162 5.19336 0.248467 5.19336 0.338459C5.19336 0.428451 5.22911 0.514756 5.29274 0.57839C5.35638 0.642024 5.44268 0.677773 5.53267 0.677773H17.074C17.4047 0.678112 17.7218 0.809639 17.9557 1.04349C18.1896 1.27735 18.3212 1.59444 18.3215 1.92518V13.4668C18.3215 13.5568 18.3573 13.6431 18.4209 13.7067C18.4846 13.7704 18.5709 13.8061 18.6609 13.8061C18.7509 13.8061 18.8372 13.7704 18.9008 13.7067C18.9644 13.6431 19.0002 13.5568 19.0002 13.4668V1.92518C18.9996 1.41453 18.7964 0.924964 18.4353 0.563892C18.0742 0.202819 17.5846 -0.000280697 17.074 -0.000854492Z" fill="#132F3B"/>
<path d="M17.3137 15.248C17.2822 15.2165 17.2448 15.1915 17.2036 15.1745C17.1625 15.1574 17.1184 15.1487 17.0738 15.1487C17.0293 15.1487 16.9851 15.1574 16.944 15.1745C16.9028 15.1915 16.8654 15.2165 16.8339 15.248C16.8024 15.2795 16.7774 15.3169 16.7604 15.3581C16.7433 15.3993 16.7345 15.4434 16.7345 15.4879C16.7345 15.5325 16.7433 15.5766 16.7604 15.6178C16.7774 15.6589 16.8024 15.6963 16.8339 15.7278L17.8415 16.7353H3.51121C3.18052 16.7349 2.86349 16.6034 2.62967 16.3695C2.39585 16.1357 2.26433 15.8186 2.26397 15.4879V1.15761L3.2713 2.16508C3.33493 2.2287 3.42123 2.26445 3.51121 2.26445C3.60119 2.26445 3.68749 2.2287 3.75111 2.16508C3.81474 2.10145 3.85049 2.01515 3.85049 1.92517C3.85049 1.83519 3.81474 1.74889 3.75111 1.68527L2.16456 0.0985543C2.13306 0.0670389 2.09566 0.0420387 2.0545 0.0249818C2.01333 0.0079249 1.96921 -0.000854492 1.92465 -0.000854492C1.8801 -0.000854492 1.83598 0.0079249 1.79481 0.0249818C1.75365 0.0420387 1.71625 0.0670389 1.68475 0.0985543L0.0978719 1.68527C0.0349054 1.74903 -0.000278398 1.83511 1.65917e-06 1.92472C0.000281716 2.01433 0.0360028 2.10019 0.0993666 2.16356C0.16273 2.22693 0.24859 2.26265 0.338202 2.26294C0.427813 2.26322 0.513897 2.22804 0.577661 2.16508L1.58534 1.15753V15.4879C1.58588 15.9986 1.78896 16.4881 2.15 16.8492C2.51105 17.2103 3.00059 17.4134 3.51121 17.414H17.8415L16.8339 18.4215C16.8021 18.4529 16.7768 18.4903 16.7595 18.5316C16.7421 18.5728 16.7332 18.6171 16.733 18.6618C16.7329 18.7066 16.7416 18.7509 16.7586 18.7922C16.7757 18.8336 16.8008 18.8712 16.8324 18.9028C16.864 18.9344 16.9016 18.9595 16.943 18.9765C16.9843 18.9936 17.0286 19.0023 17.0734 19.0022C17.1181 19.002 17.1624 18.993 17.2036 18.9757C17.2449 18.9584 17.2823 18.9331 17.3137 18.9013L18.9006 17.3146C18.9321 17.2831 18.9571 17.2457 18.9742 17.2045C18.9912 17.1633 19 17.1192 19 17.0747C19 17.0301 18.9912 16.986 18.9742 16.9448C18.9571 16.9037 18.9321 16.8663 18.9006 16.8348L17.3137 15.248Z" fill="#132F3B"/>
<path d="M6.03658 5.51123C5.99202 5.51122 5.94789 5.51999 5.90671 5.53704C5.86554 5.55408 5.82813 5.57908 5.79662 5.61059C5.76511 5.6421 5.74012 5.67951 5.72307 5.72068C5.70602 5.76185 5.69725 5.80598 5.69727 5.85054V12.4387C5.69727 12.5286 5.73301 12.615 5.79665 12.6786C5.86028 12.7422 5.94659 12.778 6.03658 12.778C6.12657 12.778 6.21288 12.7422 6.27651 12.6786C6.34014 12.615 6.37589 12.5286 6.37589 12.4387V7.53021C6.3764 7.239 6.49245 6.95988 6.69855 6.75414C6.90465 6.5484 7.18397 6.43285 7.47518 6.43285C7.7664 6.43285 8.04571 6.5484 8.25181 6.75414C8.45792 6.95988 8.57396 7.239 8.57447 7.53021V12.4387C8.57447 12.5287 8.61022 12.615 8.67385 12.6786C8.73749 12.7422 8.82379 12.778 8.91379 12.778C9.00378 12.778 9.09008 12.7422 9.15372 12.6786C9.21735 12.615 9.2531 12.5287 9.2531 12.4387V7.53021C9.25361 7.239 9.36965 6.95988 9.57576 6.75414C9.78186 6.5484 10.0612 6.43285 10.3524 6.43285C10.6436 6.43285 10.9229 6.5484 11.129 6.75414C11.3351 6.95988 11.4512 7.239 11.4517 7.53021V12.4387C11.4517 12.5287 11.4874 12.615 11.5511 12.6786C11.6147 12.7422 11.701 12.778 11.791 12.778C11.881 12.778 11.9673 12.7422 12.0309 12.6786C12.0946 12.615 12.1303 12.5287 12.1303 12.4387V7.53021C12.1312 7.15415 12.0125 6.78754 11.7914 6.48332C11.5704 6.1791 11.2583 5.95302 10.9004 5.83772C10.5424 5.72242 10.1571 5.72386 9.8 5.84185C9.44293 5.95984 9.13259 6.18826 8.91381 6.49413C8.77517 6.29803 8.59775 6.13247 8.39254 6.0077C8.18733 5.88293 7.9587 5.80161 7.72079 5.76877C7.48289 5.73593 7.24077 5.75227 7.00944 5.81679C6.7781 5.8813 6.56247 5.99261 6.37589 6.14382V5.85054C6.3759 5.80598 6.36714 5.76185 6.35009 5.72068C6.33304 5.67951 6.30805 5.6421 6.27654 5.61059C6.24503 5.57908 6.20761 5.55408 6.16644 5.53704C6.12527 5.51999 6.08114 5.51122 6.03658 5.51123Z" fill="#132F3B"/>
<path d="M15.6993 5.67056C15.8479 5.45189 15.9274 5.19367 15.9276 4.9293C15.9279 4.75382 15.8935 4.58001 15.8266 4.41781C15.7596 4.25561 15.6613 4.1082 15.5374 3.98402C15.4134 3.85984 15.2661 3.76132 15.104 3.6941C14.9419 3.62688 14.7682 3.59229 14.5927 3.59229C14.4172 3.59229 14.2435 3.62688 14.0814 3.6941C13.9193 3.76132 13.772 3.85984 13.648 3.98402C13.5241 4.1082 13.4258 4.25561 13.3588 4.41781C13.2919 4.58001 13.2575 4.75382 13.2578 4.9293C13.2578 5.0193 13.2936 5.1056 13.3572 5.16923C13.4208 5.23287 13.5071 5.26862 13.5971 5.26862C13.6871 5.26862 13.7734 5.23287 13.8371 5.16923C13.9007 5.1056 13.9364 5.0193 13.9364 4.9293C13.9362 4.843 13.9531 4.7575 13.986 4.6777C14.0189 4.59791 14.0672 4.52539 14.1281 4.46429C14.1891 4.40319 14.2615 4.35472 14.3412 4.32165C14.4209 4.28857 14.5064 4.27155 14.5927 4.27155C14.679 4.27155 14.7645 4.28857 14.8442 4.32165C14.9239 4.35472 14.9963 4.40319 15.0573 4.46429C15.1182 4.52539 15.1665 4.59791 15.1994 4.6777C15.2323 4.7575 15.2492 4.843 15.249 4.9293C15.2492 5.0534 15.2132 5.17487 15.1452 5.27872L13.558 6.98241C13.4952 7.04948 13.4534 7.13343 13.4377 7.22395C13.4219 7.31448 13.433 7.40762 13.4695 7.49194C13.506 7.57625 13.5664 7.64806 13.6431 7.69853C13.7199 7.749 13.8098 7.77594 13.9016 7.77602H15.5568C15.6468 7.77602 15.7331 7.74027 15.7967 7.67664C15.8604 7.61301 15.8961 7.5267 15.8961 7.43671C15.8961 7.34672 15.8604 7.26041 15.7967 7.19678C15.7331 7.13314 15.6468 7.09739 15.5568 7.09739H14.3818L15.5976 5.80443C15.6065 5.79482 15.6993 5.67056 15.6993 5.67056Z" fill="#132F3B"/>
</svg>
