<svg width="62" height="36" viewBox="0 0 62 36" fill="none" xmlns="http://www.w3.org/2000/svg">
<rect x="1.35938" y="1.34375" width="59.9775" height="34.0658" rx="7.5" fill="#FAFAFA"/>
<rect x="1.35938" y="1.34375" width="59.9775" height="34.0658" rx="7.5" stroke="#40C389"/>
<rect x="1.35938" y="1.34375" width="59.9775" height="34.0658" rx="7.5" stroke="#EDEDED" stroke-opacity="0.97"/>
<path d="M44.905 19.5577C45.4908 18.9719 45.4908 18.0222 44.905 17.4364L35.359 7.89047C34.7732 7.30468 33.8235 7.30468 33.2377 7.89047C32.6519 8.47626 32.6519 9.426 33.2377 10.0118L41.723 18.4971L33.2377 26.9824C32.6519 27.5681 32.6519 28.5179 33.2377 29.1037C33.8235 29.6895 34.7732 29.6895 35.359 29.1037L44.905 19.5577ZM18.8535 18.4971L18.8535 19.9971L31.3489 19.9971L31.3489 18.4971L31.3489 16.9971L18.8535 16.9971L18.8535 18.4971ZM31.3489 18.4971L31.3489 19.9971L37.5966 19.9971L37.5966 18.4971L37.5966 16.9971L31.3489 16.9971L31.3489 18.4971ZM37.5966 18.4971L37.5966 19.9971L43.8443 19.9971L43.8443 18.4971L43.8443 16.9971L37.5966 16.9971L37.5966 18.4971Z" fill="#09817B"/>
</svg>
