<svg width="40" height="40" viewBox="0 0 40 40" fill="none" xmlns="http://www.w3.org/2000/svg">
<path d="M12.2578 24.5889C11.14 22.7029 10.749 20.4738 11.1582 18.3201C11.5674 16.1662 12.7487 14.2358 14.4804 12.8913C16.212 11.5468 18.3749 10.8805 20.5629 11.0176C22.751 11.1548 24.8137 12.0858 26.3639 13.636C27.9142 15.1863 28.8452 17.249 28.9824 19.4371C29.1195 21.6251 28.4532 23.7879 27.1086 25.5196C25.7641 27.2512 23.8337 28.4326 21.68 28.8418C19.5262 29.251 17.297 28.86 15.4111 27.7422L12.2953 28.6244C12.1677 28.6617 12.0324 28.664 11.9035 28.6311C11.7746 28.598 11.657 28.5311 11.563 28.437C11.4689 28.343 11.4019 28.2254 11.369 28.0965C11.336 27.9677 11.3383 27.8323 11.3756 27.7046L12.2578 24.5889Z" stroke="white" stroke-width="1.5" stroke-linecap="round" stroke-linejoin="round"/>
<path d="M22.2594 25.25C21.2726 25.2525 20.295 25.0599 19.3828 24.6834C18.4706 24.3069 17.6418 23.7539 16.944 23.0561C16.2462 22.3583 15.6931 21.5295 15.3166 20.6173C14.9401 19.7051 14.7476 18.7275 14.75 17.7407C14.7525 17.0461 15.0302 16.3808 15.5222 15.8906C16.0142 15.4003 16.6805 15.125 17.375 15.125C17.4896 15.1241 17.6023 15.1541 17.7013 15.2118C17.8003 15.2696 17.8819 15.3529 17.9375 15.4531L19.0344 17.3657C19.0996 17.4819 19.1331 17.6133 19.1315 17.7466C19.1298 17.8799 19.0931 18.0104 19.025 18.125L18.1438 19.5969C18.5952 20.601 19.399 21.4049 20.4031 21.8563L21.875 20.975C21.9896 20.9069 22.1202 20.8702 22.2535 20.8686C22.3868 20.8669 22.5181 20.9004 22.6344 20.9656L24.5469 22.0625C24.6471 22.1181 24.7305 22.1997 24.7882 22.2987C24.8459 22.3977 24.8759 22.5104 24.875 22.625C24.8726 23.3188 24.5965 23.9837 24.1068 24.4752C23.6171 24.9666 22.9532 25.2451 22.2594 25.25Z" stroke="white" stroke-width="1.5" stroke-linecap="round" stroke-linejoin="round"/>
</svg>
