<svg width="25" height="25" viewBox="0 0 25 25" fill="none" xmlns="http://www.w3.org/2000/svg">
<path fill-rule="evenodd" clip-rule="evenodd" d="M0 9.21426C0 9.76655 0.447715 10.2143 1 10.2143H9C9.55228 10.2143 10 9.76654 10 9.21426V1C10 0.447715 9.55228 0 9 0H1C0.447715 0 0 0.447715 0 1V9.21426Z" fill="#09817B" fill-opacity="0.5"/>
<path fill-rule="evenodd" clip-rule="evenodd" d="M0 24C0 24.5523 0.447715 25 1 25H9C9.55228 25 10 24.5523 10 24V15.7858C10 15.2335 9.55228 14.7858 9 14.7858H1C0.447715 14.7858 0 15.2335 0 15.7858V24Z" fill="#09817B" fill-opacity="0.5"/>
<path fill-rule="evenodd" clip-rule="evenodd" d="M15 24C15 24.5523 15.4477 25 16 25H24C24.5523 25 25 24.5523 25 24V15.7858C25 15.2335 24.5523 14.7858 24 14.7858H16C15.4477 14.7858 15 15.2335 15 15.7858V24Z" fill="#09817B" fill-opacity="0.5"/>
</svg>
