<svg width="29" height="29" viewBox="0 0 29 29" fill="none" xmlns="http://www.w3.org/2000/svg">
<path fill-rule="evenodd" clip-rule="evenodd" d="M2 11C2 11.5523 2.44772 12 3 12H11C11.5523 12 12 11.5523 12 11V3C12 2.44772 11.5523 2 11 2H3C2.44772 2 2 2.44772 2 3V11Z" fill="#09817B"/>
<path fill-rule="evenodd" clip-rule="evenodd" d="M17 11C17 11.5523 17.4477 12 18 12H26C26.5523 12 27 11.5523 27 11V3C27 2.44772 26.5523 2 26 2H18C17.4477 2 17 2.44772 17 3V11Z" fill="#09817B"/>
<path fill-rule="evenodd" clip-rule="evenodd" d="M2 25C2 25.5523 2.44772 26 3 26H11C11.5523 26 12 25.5523 12 25V17C12 16.4477 11.5523 16 11 16H3C2.44772 16 2 16.4477 2 17V25Z" fill="#09817B"/>
</svg>
