<svg width="21" height="20" viewBox="0 0 21 20" fill="none" xmlns="http://www.w3.org/2000/svg">
<path d="M10.1758 0C8.19797 0 6.26457 0.58649 4.62008 1.6853C2.97559 2.78412 1.69387 4.3459 0.93699 6.17317C0.180114 8.00042 -0.0179188 10.0111 0.367932 11.9509C0.753785 13.8907 1.70619 15.6726 3.10471 17.0711C4.50324 18.4696 6.28507 19.422 8.22488 19.8079C10.1647 20.1937 12.1753 19.9957 14.0027 19.2388C15.8299 18.4819 17.3917 17.2002 18.4904 15.5557C19.5893 13.9112 20.1758 11.9778 20.1758 10C20.1727 7.34878 19.1181 4.80701 17.2434 2.93231C15.3688 1.05762 12.827 0.00306423 10.1758 0ZM14.9384 8.24894L9.29688 13.6336C9.15344 13.77 8.96303 13.8461 8.76503 13.8461C8.56704 13.8461 8.37661 13.77 8.23318 13.6336L5.41316 10.9413C5.26584 10.8001 5.18055 10.6063 5.17603 10.4023C5.17151 10.1984 5.24814 10.0009 5.38908 9.85343C5.53001 9.70593 5.72375 9.62039 5.9277 9.61562C6.13166 9.61085 6.32918 9.68722 6.47687 9.82797L8.76503 12.0132L13.8747 7.13567C14.0223 6.99491 14.2199 6.91853 14.4239 6.92331C14.6278 6.92809 14.8216 7.01362 14.9624 7.16113C15.1034 7.30863 15.18 7.50606 15.1756 7.71002C15.171 7.91399 15.0858 8.10782 14.9384 8.24894Z" fill="#1DAC94"/>
</svg>
