<svg width="21" height="20" viewBox="0 0 21 20" fill="none" xmlns="http://www.w3.org/2000/svg">
<path d="M10.2207 0C8.24289 0 6.30949 0.58649 4.665 1.6853C3.02051 2.78412 1.73879 4.3459 0.981912 6.17317C0.225036 8.00042 0.0270031 10.0111 0.412854 11.9509C0.798706 13.8907 1.75111 15.6726 3.14964 17.0711C4.54816 18.4696 6.32999 19.422 8.2698 19.8079C10.2096 20.1937 12.2203 19.9957 14.0476 19.2388C15.8748 18.4819 17.4366 17.2002 18.5354 15.5557C19.6343 13.9112 20.2207 11.9778 20.2207 10C20.2176 7.34878 19.163 4.80701 17.2884 2.93231C15.4137 1.05762 12.8719 0.00306423 10.2207 0ZM14.9834 8.24894L9.3418 13.6336C9.19836 13.77 9.00795 13.8461 8.80995 13.8461C8.61196 13.8461 8.42154 13.77 8.2781 13.6336L5.45808 10.9413C5.31076 10.8001 5.22547 10.6063 5.22095 10.4023C5.21644 10.1984 5.29306 10.0009 5.434 9.85343C5.57494 9.70593 5.76867 9.62039 5.97263 9.61562C6.17658 9.61085 6.3741 9.68722 6.52179 9.82797L8.80995 12.0132L13.9196 7.13567C14.0673 6.99491 14.2648 6.91853 14.4688 6.92331C14.6727 6.92809 14.8665 7.01362 15.0074 7.16113C15.1484 7.30863 15.2249 7.50606 15.2205 7.71002C15.2159 7.91399 15.1307 8.10782 14.9834 8.24894Z" fill="#CBD5E1"/>
</svg>
