<svg width="28" height="22" viewBox="0 0 28 22" fill="none" xmlns="http://www.w3.org/2000/svg">
<path d="M11.9508 1.56843L10.9346 0C3.90541 4.74491 0 10.51 0 15.2546C0 19.8427 3.35901 22 6.20977 22C9.80233 22 12.3406 18.9403 12.3406 15.7253C12.3406 13.0198 10.6221 10.7058 8.31772 9.8423C7.65422 9.60629 7.02953 9.41058 7.02953 8.27353C7.02953 6.82294 8.08418 4.66567 11.9508 1.56741V1.56843ZM27.4539 1.56843L26.4381 0C19.4862 4.74491 15.5035 10.51 15.5035 15.2546C15.5035 19.8427 18.9401 22 21.7906 22C25.4219 22 28 18.9403 28 15.7253C28 13.0198 26.243 10.7058 23.86 9.8423C23.1965 9.60629 22.6103 9.41058 22.6103 8.27353C22.6103 6.82294 23.7038 4.66567 27.4526 1.56741L27.4539 1.56843Z" fill="white"/>
</svg>
