<svg width="32" height="41" viewBox="0 0 32 41" fill="none" xmlns="http://www.w3.org/2000/svg">
<mask id="mask0_966_440" style="mask-type:luminance" maskUnits="userSpaceOnUse" x="0" y="0" width="32" height="41">
<path d="M0 0H31.1831V41H0V0Z" fill="white"/>
</mask>
<g mask="url(#mask0_966_440)">
<path d="M30.9417 10.0872L21.0948 0.240234C20.9414 0.0860933 20.7331 0 20.5147 0H0.820707C0.367683 0 0 0.367307 0 0.820331V40.2086C0 40.6624 0.367683 41.0293 0.820707 41.0293H30.3616C30.8154 41.0293 31.1823 40.6624 31.1823 40.2086V10.6673C31.1823 10.45 31.0963 10.2406 30.9417 10.0872ZM21.3354 2.80123L28.3807 9.84698H21.3354V2.80123ZM1.64104 39.3879V1.64104H19.694V10.6673C19.694 11.1203 20.0609 11.488 20.5147 11.488H29.5413V39.3879H1.64104Z" fill="#333333" fill-opacity="0.2"/>
</g>
<path d="M7.38674 11.4877H13.9516C14.4043 11.4877 14.772 11.12 14.772 10.667C14.772 10.2144 14.4043 9.84668 13.9516 9.84668H7.38674C6.93371 9.84668 6.56641 10.2144 6.56641 10.667C6.56641 11.12 6.93371 11.4877 7.38674 11.4877Z" fill="#333333" fill-opacity="0.2"/>
<path d="M23.7986 16.4116H7.38674C6.93371 16.4116 6.56641 16.7793 6.56641 17.2323C6.56641 17.6854 6.93371 18.053 7.38674 18.053H23.7986C24.2524 18.053 24.6189 17.6854 24.6189 17.2323C24.6189 16.7793 24.2524 16.4116 23.7986 16.4116Z" fill="#333333" fill-opacity="0.2"/>
<path d="M23.7986 22.9766H7.38674C6.93371 22.9766 6.56641 23.3431 6.56641 23.7969C6.56641 24.2507 6.93371 24.6176 7.38674 24.6176H23.7986C24.2524 24.6176 24.6189 24.2507 24.6189 23.7969C24.6189 23.3431 24.2524 22.9766 23.7986 22.9766Z" fill="#333333" fill-opacity="0.2"/>
<path d="M23.7986 29.5405H7.38674C6.93371 29.5405 6.56641 29.9075 6.56641 30.3612C6.56641 30.815 6.93371 31.1816 7.38674 31.1816H23.7986C24.2524 31.1816 24.6189 30.815 24.6189 30.3612C24.6189 29.9075 24.2524 29.5405 23.7986 29.5405Z" fill="#333333" fill-opacity="0.2"/>
</svg>
