<svg width="24" height="24" viewBox="0 0 24 24" fill="none" xmlns="http://www.w3.org/2000/svg">
<path d="M7.30177 22.7471C6.10508 22.7477 4.93511 22.3934 3.93989 21.7289C2.94466 21.0643 2.16891 20.1195 1.71079 19.014C1.25267 17.9085 1.13277 16.6919 1.36625 15.5182C1.59974 14.3446 2.17612 13.2665 3.02247 12.4205L5.27147 10.1715C5.41237 10.0322 5.6027 9.95428 5.80085 9.95484C5.999 9.9554 6.18888 10.0344 6.329 10.1745C6.46912 10.3146 6.54809 10.5045 6.54865 10.7026C6.54921 10.9008 6.47133 11.0911 6.33201 11.232L4.08301 13.4811C3.232 14.3351 2.75465 15.492 2.75575 16.6976C2.75684 17.9033 3.2363 19.0592 4.08887 19.9117C4.94143 20.7642 6.09743 21.2436 7.30309 21.2446C8.50875 21.2456 9.66555 20.7682 10.5195 19.9171L12.7685 17.6681C12.9092 17.5274 13.0999 17.4484 13.2988 17.4484C13.4977 17.4484 13.6884 17.5274 13.8291 17.6681C13.9697 17.8087 14.0487 17.9995 14.0487 18.1984C14.0487 18.3972 13.9697 18.588 13.8291 18.7286L11.5801 20.9776C11.0186 21.5398 10.3516 21.9855 9.61744 22.2892C8.88324 22.5928 8.09629 22.7485 7.30177 22.7471Z" fill="#132F3B"/>
<path d="M18.2001 14.0484C18.0518 14.0484 17.9068 14.0044 17.7835 13.922C17.6602 13.8395 17.5641 13.7224 17.5073 13.5854C17.4506 13.4484 17.4357 13.2976 17.4647 13.1521C17.4936 13.0066 17.565 12.873 17.6699 12.7681L19.9189 10.5191C20.7699 9.66507 21.2472 8.50824 21.2461 7.30257C21.245 6.09691 20.7656 4.94095 19.913 4.08846C19.0604 3.23596 17.9044 2.7566 16.6988 2.75559C15.4931 2.75459 14.3363 3.23204 13.4823 4.08312L11.2333 6.33212C11.1637 6.40175 11.081 6.45699 10.99 6.49468C10.899 6.53236 10.8015 6.55176 10.703 6.55176C10.6046 6.55176 10.507 6.53236 10.4161 6.49467C10.3251 6.45698 10.2424 6.40174 10.1728 6.3321C10.1031 6.26246 10.0479 6.17978 10.0102 6.0888C9.97252 5.99781 9.95312 5.90029 9.95313 5.80181C9.95313 5.70332 9.97253 5.60581 10.0102 5.51482C10.0479 5.42383 10.1031 5.34116 10.1728 5.27153L12.4218 3.02253C12.9831 2.45813 13.6503 2.01003 14.3851 1.7039C15.1198 1.39777 15.9078 1.23963 16.7038 1.23853C17.4998 1.23743 18.2882 1.3934 19.0238 1.6975C19.7595 2.0016 20.4279 2.44786 20.9907 3.0107C21.5536 3.57354 21.9999 4.24192 22.3041 4.97753C22.6082 5.71314 22.7642 6.50153 22.7632 7.29753C22.7621 8.09353 22.604 8.88151 22.2979 9.61631C21.9918 10.3511 21.5438 11.0183 20.9794 11.5797L18.7304 13.8287C18.6609 13.8985 18.5782 13.9538 18.4872 13.9915C18.3962 14.0292 18.2986 14.0486 18.2001 14.0484Z" fill="#132F3B"/>
<path d="M8.49988 16.2499C8.35156 16.2499 8.20658 16.2059 8.08327 16.1235C7.95995 16.0411 7.86384 15.924 7.80708 15.7869C7.75033 15.6499 7.73548 15.4991 7.7644 15.3537C7.79333 15.2082 7.86475 15.0746 7.96961 14.9697L14.9696 7.96967C15.1104 7.82988 15.3009 7.75159 15.4993 7.75195C15.6977 7.75232 15.8879 7.8313 16.0282 7.9716C16.1685 8.1119 16.2475 8.30209 16.2479 8.50051C16.2482 8.69892 16.1699 8.8894 16.0301 9.03021L9.03015 16.0302C8.96063 16.1 8.87798 16.1554 8.78697 16.1931C8.69596 16.2308 8.59839 16.2501 8.49988 16.2499Z" fill="#132F3B"/>
</svg>
