<svg width="40" height="40" viewBox="0 0 40 40" fill="none" xmlns="http://www.w3.org/2000/svg">
<path d="M13.2695 12.7324H25.8262C26.2781 12.7324 26.4878 13.2937 26.1465 13.5898L19.8682 19.0391C19.6845 19.1983 19.4111 19.1984 19.2275 19.0391L12.9492 13.5898C12.6079 13.2937 12.8176 12.7324 13.2695 12.7324Z" stroke="white" stroke-width="1.46499"/>
<path d="M27.959 16.0605C28.1316 15.911 28.4003 16.0333 28.4004 16.2617V26.9336C28.4002 27.0806 28.2808 27.1999 28.1338 27.2002H11.0664C10.9193 27.2001 10.8 27.0807 10.7998 26.9336V16.2617C10.7999 16.0333 11.0686 15.9109 11.2412 16.0605L18.5947 22.4424C18.8733 22.6846 19.23 22.8183 19.5996 22.8184C19.9694 22.8184 20.3258 22.6837 20.6045 22.4414L20.6055 22.4424L27.959 16.0605Z" stroke="white" stroke-width="1.6"/>
</svg>
