<svg width="40" height="40" viewBox="0 0 40 40" fill="none" xmlns="http://www.w3.org/2000/svg">
<path d="M16.3621 20.346L24.4318 27.8103C24.5251 27.8972 24.6382 27.9569 24.7601 27.9838C24.882 28.0108 25.0084 28.0039 25.1271 27.964C25.2457 27.924 25.3524 27.8523 25.4366 27.7558C25.5209 27.6594 25.5799 27.5416 25.6077 27.414L28.9828 11.9192C29.0111 11.7858 29.0044 11.6467 28.9634 11.517C28.9224 11.3872 28.8487 11.2716 28.7501 11.1825C28.6515 11.0934 28.5317 11.0341 28.4036 11.0109C28.2754 10.9878 28.1436 11.0016 28.0224 11.051L11.452 17.8925C10.7877 18.1662 10.8775 19.1853 11.5777 19.3363L16.3621 20.346Z" stroke="white" stroke-width="1.5" stroke-linecap="round" stroke-linejoin="round"/>
<path d="M16.25 20.6473L29.0094 11.4316" stroke="white" stroke-width="1.5" stroke-linecap="round" stroke-linejoin="round"/>
<path d="M20.4594 24.3496L17.5344 27.2746C17.43 27.3806 17.2965 27.4531 17.1509 27.483C17.0052 27.5129 16.8539 27.4989 16.7162 27.4426C16.5786 27.3863 16.4607 27.2904 16.3777 27.167C16.2947 27.0436 16.2503 26.8983 16.25 26.7496V20.6465" stroke="white" stroke-width="1.5" stroke-linecap="round" stroke-linejoin="round"/>
</svg>
