<svg width="19" height="20" viewBox="0 0 19 20" fill="none" xmlns="http://www.w3.org/2000/svg">
<path d="M7.86446 0.353394H17.8698C17.9174 0.353391 17.9631 0.372171 17.9969 0.405657C18.0308 0.439143 18.0501 0.484633 18.0506 0.532252V2.93035C18.0506 2.97832 18.0316 3.02432 17.9977 3.05824C17.9637 3.09215 17.9177 3.11121 17.8698 3.11121C17.8218 3.11121 17.7758 3.09215 17.7419 3.05824C17.708 3.02432 17.6889 2.97832 17.6889 2.93035V0.713108H8.04532V4.93376C8.04532 4.98173 8.02626 5.02773 7.99234 5.06165C7.95843 5.09556 7.91242 5.11462 7.86446 5.11462H0.511113V19.2764H17.6889V6.49353H11.2728V8.63083C11.2728 8.6788 11.2538 8.7248 11.2199 8.75872C11.1859 8.79263 11.1399 8.81169 11.092 8.81169C11.044 8.81169 10.998 8.79263 10.9641 8.75872C10.9302 8.7248 10.9111 8.6788 10.9111 8.63083V6.31267C10.9111 6.2647 10.9302 6.2187 10.9641 6.18478C10.998 6.15087 11.044 6.13181 11.092 6.13181H17.8698C17.8935 6.13181 17.917 6.13649 17.939 6.14558C17.9609 6.15467 17.9809 6.16799 17.9977 6.18478C18.0144 6.20158 18.0278 6.22152 18.0369 6.24346C18.0459 6.2654 18.0506 6.28892 18.0506 6.31267V19.4572C18.0506 19.481 18.0459 19.5045 18.0369 19.5265C18.0278 19.5484 18.0144 19.5683 17.9977 19.5851C17.9809 19.6019 17.9609 19.6152 17.939 19.6243C17.917 19.6334 17.8935 19.6381 17.8698 19.6381H0.331252C0.283284 19.6381 0.237282 19.619 0.203364 19.5851C0.169446 19.5512 0.150391 19.5052 0.150391 19.4572V4.93376C0.150391 4.8858 0.169446 4.83979 0.203364 4.80588C0.237282 4.77196 0.283284 4.75291 0.331252 4.75291H7.6836V0.532252C7.68412 0.484633 7.70341 0.439143 7.73727 0.405657C7.77113 0.372171 7.81683 0.353391 7.86446 0.353394Z" fill="#132F3B" stroke="#132F3B" stroke-width="0.29982"/>
<path d="M11.091 11.4425H13.2474C13.2953 11.4425 13.3413 11.4616 13.3753 11.4955C13.4092 11.5294 13.4282 11.5754 13.4282 11.6234C13.4282 11.6713 13.4092 11.7173 13.3753 11.7512C13.3413 11.7852 13.2953 11.8042 13.2474 11.8042H11.2719V13.4719C11.2719 13.5199 11.2528 13.5659 11.2189 13.5998C11.185 13.6337 11.139 13.6528 11.091 13.6528H0.329298C0.281331 13.6528 0.235328 13.6337 0.20141 13.5998C0.167492 13.5659 0.148438 13.5199 0.148438 13.4719C0.148438 13.4239 0.167492 13.3779 0.20141 13.344C0.235328 13.3101 0.281331 13.291 0.329298 13.291H10.9102V11.6224C10.9104 11.5746 10.9296 11.5288 10.9635 11.4951C10.9974 11.4614 11.0432 11.4425 11.091 11.4425Z" fill="#132F3B" stroke="#132F3B" stroke-width="0.29982"/>
<path d="M16.1086 11.4425H17.8696C17.9175 11.4425 17.9636 11.4616 17.9975 11.4955C18.0314 11.5294 18.0505 11.5754 18.0505 11.6234C18.0505 11.6714 18.0314 11.7174 17.9975 11.7513C17.9636 11.7852 17.9175 11.8043 17.8696 11.8043H16.1086C16.0607 11.8043 16.0146 11.7852 15.9807 11.7513C15.9468 11.7174 15.9277 11.6714 15.9277 11.6234C15.9277 11.5754 15.9468 11.5294 15.9807 11.4955C16.0146 11.4616 16.0607 11.4425 16.1086 11.4425Z" fill="#132F3B" stroke="#132F3B" stroke-width="0.29982"/>
<path d="M11.091 16.0199C11.139 16.0199 11.185 16.039 11.219 16.0729C11.2529 16.1068 11.2719 16.1528 11.2719 16.2008V19.4578C11.2719 19.5058 11.2529 19.5518 11.219 19.5857C11.185 19.6197 11.139 19.6387 11.091 19.6387C11.0431 19.6387 10.9971 19.6197 10.9631 19.5857C10.9292 19.5518 10.9102 19.5058 10.9102 19.4578V16.2008C10.9102 16.1528 10.9292 16.1068 10.9631 16.0729C10.9971 16.039 11.0431 16.0199 11.091 16.0199Z" fill="#132F3B" stroke="#132F3B" stroke-width="0.29982"/>
</svg>
