<svg width="24" height="19" viewBox="0 0 24 19" fill="none" xmlns="http://www.w3.org/2000/svg">
<path d="M20.5967 15.9031H1.56782C1.36809 15.9028 1.17663 15.8233 1.0354 15.682C0.894174 15.5408 0.814717 15.3492 0.814453 15.1494V1.83424C0.814717 1.63443 0.894174 1.44289 1.0354 1.3016C1.17663 1.16032 1.36809 1.08083 1.56782 1.08057H20.5967C20.7963 1.0811 20.9875 1.1607 21.1285 1.30196C21.2695 1.44321 21.3488 1.6346 21.3491 1.83424V15.1494C21.3491 15.3491 21.2699 15.5407 21.1288 15.682C20.9877 15.8233 20.7964 15.9028 20.5967 15.9031ZM1.56782 1.44641C1.465 1.44641 1.36639 1.48727 1.29369 1.56C1.22099 1.63273 1.18014 1.73138 1.18014 1.83424V15.1494C1.18014 15.2523 1.22099 15.3509 1.29369 15.4236C1.36639 15.4964 1.465 15.5372 1.56782 15.5372H20.5967C20.6994 15.537 20.7977 15.496 20.8702 15.4233C20.9427 15.3506 20.9834 15.2521 20.9834 15.1494V1.83424C20.9834 1.73155 20.9427 1.63306 20.8702 1.56035C20.7977 1.48765 20.6994 1.44667 20.5967 1.44641H1.56782Z" fill="#132F3B" stroke="#132F3B" stroke-width="0.29982"/>
<path d="M21.1662 4.57504H0.997299C0.948805 4.57504 0.902297 4.55576 0.868007 4.52146C0.833717 4.48716 0.814453 4.44063 0.814453 4.39212V1.83424C0.814717 1.63443 0.894174 1.44289 1.0354 1.3016C1.17663 1.16032 1.36809 1.08083 1.56782 1.08057H20.5967C20.7963 1.0811 20.9875 1.1607 21.1285 1.30196C21.2695 1.44321 21.3488 1.6346 21.3491 1.83424V4.39212C21.3491 4.44063 21.3298 4.48716 21.2955 4.52146C21.2613 4.55576 21.2147 4.57504 21.1662 4.57504ZM1.18314 4.2092H20.9864V1.83424C20.9864 1.73155 20.9457 1.63306 20.8732 1.56035C20.8007 1.48765 20.7024 1.44667 20.5997 1.44641H1.56782C1.465 1.44641 1.36639 1.48727 1.29369 1.56C1.22099 1.63273 1.18014 1.73138 1.18014 1.83424L1.18314 4.2092Z" fill="#132F3B" stroke="#132F3B" stroke-width="0.29982"/>
<path d="M22.5924 18.1191H3.27875C3.07903 18.1188 2.88756 18.0393 2.74634 17.8981C2.60511 17.7568 2.52565 17.5652 2.52539 17.3654V15.7201C2.52539 15.6716 2.54465 15.6251 2.57894 15.5908C2.61323 15.5565 2.65974 15.5372 2.70824 15.5372H20.5931C20.6958 15.537 20.7941 15.496 20.8666 15.4233C20.9391 15.3506 20.9798 15.2521 20.9798 15.1494V3.4765C20.9798 3.42799 20.9991 3.38146 21.0333 3.34716C21.0676 3.31285 21.1141 3.29358 21.1626 3.29358H22.5884C22.7882 3.29384 22.9796 3.37333 23.1208 3.51462C23.2621 3.6559 23.3415 3.84744 23.3418 4.04725V17.3624C23.3423 17.5621 23.2638 17.7538 23.1233 17.8956C22.9829 18.0374 22.792 18.1178 22.5924 18.1191ZM2.89108 15.9031V17.3654C2.89135 17.4682 2.93227 17.5667 3.00492 17.6394C3.07757 17.712 3.17602 17.753 3.27875 17.7532H22.5924C22.6951 17.753 22.7934 17.712 22.8659 17.6393C22.9384 17.5666 22.9791 17.4681 22.9791 17.3654V4.05025C22.9791 3.94756 22.9384 3.84907 22.8659 3.77636C22.7934 3.70366 22.6951 3.66268 22.5924 3.66242H21.3445V15.1494C21.3445 15.3491 21.2652 15.5406 21.1242 15.682C20.9831 15.8233 20.7917 15.9028 20.5921 15.9031H2.89108Z" fill="#132F3B" stroke="#132F3B" stroke-width="0.29982"/>
<path d="M10.6679 12.1217H7.27674V11.7728L9.06623 9.74571C9.33243 9.45965 9.56693 9.14562 9.76564 8.80912C9.89163 8.58874 9.96034 8.34026 9.96547 8.08644C9.98005 7.78692 9.87716 7.49354 9.67871 7.2688C9.57291 7.16274 9.44575 7.08044 9.30569 7.02735C9.16563 6.97427 9.01588 6.95163 8.8664 6.96093C8.69348 6.94883 8.51995 6.97328 8.3571 7.0327C8.19425 7.09211 8.04573 7.18516 7.9212 7.30578C7.69745 7.55982 7.58166 7.8912 7.59847 8.22937H7.18182L7.17383 8.20638C7.16306 7.99356 7.19688 7.78084 7.2731 7.58185C7.34933 7.38287 7.46628 7.20201 7.61645 7.05089C7.78092 6.89007 7.97687 6.76505 8.19198 6.68368C8.4071 6.60231 8.63672 6.56636 8.8664 6.5781C9.07202 6.56811 9.2776 6.59881 9.47134 6.66845C9.66509 6.73809 9.84319 6.8453 9.99544 6.98392C10.1384 7.12532 10.2499 7.29523 10.3229 7.48259C10.3959 7.66995 10.4287 7.87058 10.4191 8.07144C10.4118 8.39638 10.3138 8.71281 10.1363 8.98504C9.90363 9.35209 9.63952 9.69824 9.34699 10.0196L7.84226 11.7188L7.85026 11.7378H10.6639L10.6679 12.1217Z" fill="#132F3B"/>
<path d="M14.7564 8.06444C14.7613 8.34469 14.67 8.61816 14.4976 8.8391C14.3197 9.06404 14.0796 9.2316 13.8072 9.32089C14.1179 9.41023 14.3957 9.58846 14.6065 9.83367C14.8051 10.0674 14.9117 10.3656 14.9062 10.6723C14.9185 10.8862 14.8804 11.1001 14.795 11.2966C14.7096 11.4931 14.5794 11.6668 14.4146 11.8038C14.0415 12.0611 13.5989 12.1989 13.1457 12.1989C12.6925 12.1989 12.25 12.0611 11.8768 11.8038C11.7131 11.6658 11.584 11.4915 11.4997 11.2946C11.4154 11.0978 11.3782 10.884 11.3912 10.6703C11.3866 10.3625 11.493 10.0634 11.6909 9.82767C11.9004 9.58088 12.1787 9.40232 12.4903 9.31489C12.2189 9.22674 11.9802 9.05928 11.8049 8.8341C11.6357 8.61257 11.5465 8.34019 11.5521 8.06144C11.5398 7.85663 11.5734 7.65167 11.6503 7.46147C11.7272 7.27128 11.8456 7.10062 11.9967 6.96192C12.3282 6.70749 12.7344 6.56958 13.1522 6.56958C13.5701 6.56958 13.9762 6.70749 14.3077 6.96192C14.4606 7.10012 14.5803 7.27102 14.658 7.46191C14.7356 7.6528 14.7693 7.85875 14.7564 8.06444ZM14.4566 10.6743C14.4614 10.515 14.4303 10.3567 14.3654 10.2111C14.3005 10.0656 14.2036 9.93653 14.0819 9.83367C13.82 9.61329 13.4857 9.4979 13.1437 9.50981C12.8015 9.49625 12.4666 9.61184 12.2055 9.83367C12.0857 9.93767 11.9905 10.0671 11.9269 10.2125C11.8633 10.3579 11.8329 10.5157 11.8378 10.6743C11.8299 10.8328 11.8585 10.991 11.9216 11.1366C11.9847 11.2822 12.0805 11.4114 12.2015 11.5139C12.4763 11.7121 12.8065 11.8188 13.1452 11.8188C13.484 11.8188 13.8141 11.7121 14.0889 11.5139C14.2116 11.4123 14.309 11.2836 14.3735 11.1379C14.438 10.9922 14.4678 10.8335 14.4606 10.6743H14.4566ZM14.3027 8.06044C14.3064 7.91319 14.2786 7.76685 14.2212 7.6312C14.1639 7.49554 14.0782 7.37369 13.97 7.27379C13.7467 7.06374 13.4491 6.95087 13.1427 6.95992C12.8378 6.94796 12.5402 7.05555 12.3134 7.25979C12.2056 7.36222 12.1209 7.48661 12.0653 7.62456C12.0096 7.76251 11.9842 7.91081 11.9907 8.05944C11.9847 8.20449 12.0107 8.34908 12.0668 8.48295C12.1229 8.61683 12.2078 8.73671 12.3154 8.8341C12.5511 9.02259 12.8439 9.12527 13.1457 9.12527C13.4475 9.12527 13.7403 9.02259 13.976 8.8341C14.0848 8.73756 14.1709 8.61812 14.2281 8.48436C14.2852 8.35059 14.3121 8.20583 14.3067 8.06044H14.3027Z" fill="#132F3B"/>
<path d="M4.81055 0H6.80919V1.99864H4.81055V0Z" fill="#132F3B"/>
<path d="M15.8027 0H17.8014V1.99864H15.8027V0Z" fill="#132F3B"/>
<path d="M19.5336 14.3196H17.384C17.36 14.3196 17.3363 14.3149 17.3141 14.3057C17.2919 14.2965 17.2717 14.283 17.2547 14.266C17.2378 14.2491 17.2243 14.2289 17.2151 14.2067C17.2059 14.1845 17.2012 14.1607 17.2012 14.1367C17.2012 14.1127 17.2059 14.0889 17.2151 14.0667C17.2243 14.0446 17.2378 14.0244 17.2547 14.0074C17.2717 13.9904 17.2919 13.977 17.3141 13.9678C17.3363 13.9586 17.36 13.9539 17.384 13.9539H19.5336C19.5576 13.9539 19.5814 13.9586 19.6036 13.9678C19.6258 13.977 19.6459 13.9904 19.6629 14.0074C19.6799 14.0244 19.6934 14.0446 19.7025 14.0667C19.7117 14.0889 19.7165 14.1127 19.7165 14.1367C19.7165 14.1607 19.7117 14.1845 19.7025 14.2067C19.6934 14.2289 19.6799 14.2491 19.6629 14.266C19.6459 14.283 19.6258 14.2965 19.6036 14.3057C19.5814 14.3149 19.5576 14.3196 19.5336 14.3196Z" fill="#132F3B" stroke="#132F3B" stroke-width="0.29982"/>
</svg>
